<svg xmlns="http://www.w3.org/2000/svg" viewBox="0 0 98.68 98.72"><defs><style>.cls-1{fill:#fff;}.cls-2{fill:#2d3142;}.cls-3{fill:#ef8354;}</style></defs><title>Feijoa logo SVG</title><g id="My_Vector" data-name="My Vector"><circle class="cls-1" cx="49.34" cy="49.49" r="49.38"/><ellipse class="cls-2" cx="49.34" cy="49.36" rx="46.26" ry="46.27"/><path class="cls-3" d="M56.21,51V48a1.72,1.72,0,0,1,1.71-1.71H75.56a3.73,3.73,0,0,0,3.61-4.68,30.81,30.81,0,0,0-22-21.8,3.73,3.73,0,0,0-4.66,3.61V41.16a1.7,1.7,0,0,1-1.7,1.7H47.88a1.71,1.71,0,0,1-1.71-1.7V23.52a3.73,3.73,0,0,0-4.68-3.61A30.81,30.81,0,0,0,19.76,41.64a3.73,3.73,0,0,0,3.61,4.68H41A1.71,1.71,0,0,1,42.71,48V51A1.71,1.71,0,0,1,41,52.66H23.3a3.72,3.72,0,0,0-3.61,4.65,30.81,30.81,0,0,0,21.8,22,3.73,3.73,0,0,0,4.68-3.61V58.07a1.72,1.72,0,0,1,1.71-1.71H50.8a1.71,1.71,0,0,1,1.7,1.71V75.78a3.73,3.73,0,0,0,4.66,3.61A30.78,30.78,0,0,0,79.24,57.31a3.73,3.73,0,0,0-3.62-4.65H57.92A1.72,1.72,0,0,1,56.21,51Z"/><rect class="cls-1" x="56.55" y="26.2" width="6.67" height="6.67" rx="3.33" ry="3.33"/><rect class="cls-1" x="69.46" y="37.66" width="6.67" height="6.67" rx="3.33" ry="3.33"/><circle class="cls-1" cx="63.38" cy="39.2" r="2.17"/><rect class="cls-1" x="56.55" y="67.26" width="6.67" height="6.67" rx="3.33" ry="3.33"/><rect class="cls-1" x="69.46" y="55.8" width="6.67" height="6.67" rx="3.33" ry="3.33"/><circle class="cls-1" cx="63.38" cy="60.93" r="2.17"/><rect class="cls-1" x="37" y="25.2" width="6.67" height="6.67" rx="3.33" ry="3.33" transform="translate(80.68 57.06) rotate(-180)"/><rect class="cls-1" x="24.09" y="36.66" width="6.67" height="6.67" rx="3.33" ry="3.33" transform="translate(54.84 79.99) rotate(180)"/><circle class="cls-1" cx="36.84" cy="38.2" r="2.17"/><rect class="cls-1" x="37" y="66.26" width="6.67" height="6.67" rx="3.33" ry="3.33" transform="translate(80.68 139.19) rotate(180)"/><rect class="cls-1" x="24.09" y="54.8" width="6.67" height="6.67" rx="3.33" ry="3.33" transform="translate(54.84 116.26) rotate(-180)"/><circle class="cls-1" cx="36.84" cy="59.93" r="2.17"/></g></svg>