<?xml version="1.0" encoding="UTF-8" standalone="no"?>
<!DOCTYPE svg PUBLIC "-//W3C//DTD SVG 1.1//EN" "http://www.w3.org/Graphics/SVG/1.1/DTD/svg11.dtd">
<svg version="1.1" xmlns="http://www.w3.org/2000/svg" xmlns:xlink="http://www.w3.org/1999/xlink" preserveAspectRatio="xMidYMid meet" viewBox="0 0 300 300" width="300" height="300"><defs><path d="M212.4 118.37C188.96 148.64 191.44 189.87 145.4 154.22C99.35 118.56 146.43 115.71 169.87 85.44C184.87 66.07 193.15 32.96 209.23 20.99C218.27 14.26 213.24 35.56 229.82 48.39C246.4 61.23 266.21 51.37 262.53 62.26C255.97 81.6 227.4 99 212.4 118.37Z" id="a1mxrBeRah"></path><path d="M61.52 266.51C33.18 244.56 -0.02 175.26 44.63 117.6C89.28 59.93 169.92 32.3 215.53 67.62C261.15 102.94 254.58 187.93 209.93 245.59C165.27 303.26 89.87 288.46 61.52 266.51Z" id="b7PpdEHZUe"></path></defs><g><g><g><use xlink:href="#a1mxrBeRah" opacity="1" fill="#b0b14e" fill-opacity="1"></use><g><use xlink:href="#a1mxrBeRah" opacity="1" fill-opacity="0" stroke="#000000" stroke-width="1" stroke-opacity="0"></use></g></g><g><use xlink:href="#b7PpdEHZUe" opacity="1" fill="#59841c" fill-opacity="1"></use><g><use xlink:href="#b7PpdEHZUe" opacity="1" fill-opacity="0" stroke="#000000" stroke-width="1" stroke-opacity="0"></use></g></g></g></g></svg>